<svg width="1520" height="177" viewBox="0 0 1520 177" fill="none" xmlns="http://www.w3.org/2000/svg">
<path d="M182.34 183.01L182.211 182.704H181.879H68.0853H67.7556L67.6258 183.007L42.9901 240.5H0.76588L106.237 0.5H144.763L250.234 240.5H206.658L182.34 183.01ZM166.51 145.959L166.889 145.794L125.322 50.0751L124.861 49.015L124.404 50.0764L83.1544 145.796L82.8537 146.493H83.6136H166.103H166.431H166.51V145.993V145.959Z" stroke="url(#paint0_linear_19_11521)"/>
<path d="M415.012 150.436L479.031 240.5H430.716L371.905 157.006L371.755 156.794H371.496H318.708H318.208V157.294V240.5H277.5V1.5H383.605C398.595 1.5 411.831 3.63757 423.401 7.82358C434.975 12.0109 444.565 17.851 452.263 25.3375C458.623 31.8788 463.493 39.5239 466.872 48.1187C470.25 56.7108 471.982 66.2575 471.982 76.7644V77.4791C471.982 87.2777 470.564 96.0343 467.738 103.914C464.907 111.725 460.978 118.663 456.03 124.652C451.081 130.643 445.11 135.769 438.192 139.95C431.269 144.134 423.635 147.372 415.288 149.664L414.598 149.853L415.012 150.436ZM379.314 120.388L379.235 120.468H380.439C395.635 120.468 407.708 116.794 416.763 109.476C425.835 102.145 430.324 92.1483 430.324 79.6234V78.9087C430.324 65.683 425.923 55.5956 417.072 48.7319C408.249 41.8904 395.938 38.4616 380.122 38.4616H318.787H318.287V38.9616V119.888V120.388H318.787H379.314Z" stroke="url(#paint1_linear_19_11521)"/>
<path d="M638.96 114.722L712.122 1.5H756.5V240.5H715.461V68.8796V67.2405L714.546 68.6005L638.593 181.512H637.769L562.454 69.3154L561.539 67.9521V69.5941V240.5H520.5V1.5H564.878L638.12 114.722L638.54 115.371L638.96 114.722Z" stroke="url(#paint2_linear_19_11521)"/>
<path d="M965.34 183.01L965.211 182.704H964.879H851.085H850.756L850.626 183.007L825.99 240.5H783.766L889.237 0.5H927.763L1033.23 240.5H989.658L965.34 183.01ZM949.51 145.959L949.889 145.794L908.322 50.0751L907.861 49.015L907.404 50.0764L866.154 145.796L865.854 146.493H866.614H949.103H949.431H949.51V145.993V145.959Z" stroke="url(#paint3_linear_19_11521)"/>
<path d="M1267.25 73.2812L1267.25 73.2833C1273.42 87.7457 1276.5 103.398 1276.5 120.246V120.96C1276.5 137.808 1273.42 153.54 1267.25 168.082C1261.09 182.629 1252.4 195.274 1241.18 205.944C1229.96 216.614 1216.52 225.075 1200.86 231.246C1185.21 237.413 1168.13 240.5 1149.45 240.5H1060.5V1.5H1149.45C1168.13 1.5 1185.29 4.50801 1200.86 10.5171C1216.44 16.5287 1229.88 24.9101 1241.18 35.58C1252.4 46.2511 1261.17 58.8173 1267.25 73.2812ZM1183.6 197.324C1193.98 193.253 1202.77 187.659 1209.97 180.379C1217.24 173.103 1222.83 164.392 1226.9 154.414C1230.98 144.423 1232.97 133.482 1232.97 121.675V120.96C1232.97 109.233 1230.98 98.2131 1226.91 88.0657C1222.91 77.923 1217.24 69.2114 1209.97 61.9366C1202.69 54.6614 1193.91 48.9091 1183.61 44.7572C1173.3 40.6017 1161.73 38.5285 1149.13 38.5285H1101.83H1101.33V39.0285V202.892V203.392H1101.83H1149.13C1161.73 203.392 1173.22 201.399 1183.6 197.324Z" stroke="url(#paint4_linear_19_11521)"/>
<path d="M1451.34 183.01L1451.21 182.704H1450.88H1337.09H1336.76L1336.63 183.007L1311.99 240.5H1269.77L1375.24 0.5H1413.76L1519.23 240.5H1475.66L1451.34 183.01ZM1435.51 145.959L1435.89 145.794L1394.32 50.0751L1393.86 49.015L1393.4 50.0764L1352.15 145.796L1351.85 146.493H1352.61H1435.1H1435.43H1435.51V145.993V145.959Z" stroke="url(#paint5_linear_19_11521)"/>
<defs>
<linearGradient id="paint0_linear_19_11521" x1="125.5" y1="0" x2="125.5" y2="241" gradientUnits="userSpaceOnUse">
<stop stop-color="#001f47"/>
<stop offset="0.541667" stop-color="#8047dd"/>
</linearGradient>
<linearGradient id="paint1_linear_19_11521" x1="378.5" y1="1" x2="378.5" y2="241" gradientUnits="userSpaceOnUse">
<stop stop-color="#001f47"/>
<stop offset="0.541667" stop-color="#8047dd"/>
</linearGradient>
<linearGradient id="paint2_linear_19_11521" x1="638.5" y1="1" x2="638.5" y2="241" gradientUnits="userSpaceOnUse">
<stop stop-color="#001f47"/>
<stop offset="0.541667" stop-color="#8047dd"/>
</linearGradient>
<linearGradient id="paint3_linear_19_11521" x1="908.5" y1="0" x2="908.5" y2="241" gradientUnits="userSpaceOnUse">
<stop stop-color="#001f47"/>
<stop offset="0.541667" stop-color="#8047dd"/>
</linearGradient>
<linearGradient id="paint4_linear_19_11521" x1="1168.5" y1="1" x2="1168.5" y2="241" gradientUnits="userSpaceOnUse">
<stop stop-color="#001f47"/>
<stop offset="0.541667" stop-color="#8047dd"/>
</linearGradient>
<linearGradient id="paint5_linear_19_11521" x1="1394.5" y1="0" x2="1394.5" y2="241" gradientUnits="userSpaceOnUse">
<stop stop-color="#001f47"/>
<stop offset="0.541667" stop-color="#8047dd"/>
</linearGradient>
</defs>
</svg>
